<svg width="28" height="28" viewBox="0 0 28 28" fill="none" xmlns="http://www.w3.org/2000/svg">
<foreignObject x="-40" y="-40" width="108" height="108"><div xmlns="http://www.w3.org/1999/xhtml" style="backdrop-filter:blur(20px);clip-path:url(#bgblur_0_81_257_clip_path);height:100%;width:100%"></div></foreignObject><g data-figma-bg-blur-radius="40">
<path fill-rule="evenodd" clip-rule="evenodd" d="M16.5054 2.38298C16.5054 1.0669 15.4385 8.35687e-08 14.1224 2.60409e-08L13.5267 0C12.2106 -5.75278e-08 11.1437 1.0669 11.1437 2.38298V11.3191H2.38298C1.0669 11.3191 0 12.386 0 13.7021V14.2979C0 15.614 1.0669 16.6809 2.38298 16.6809H11.1437V25.617C11.1437 26.9331 12.2106 28 13.5267 28H14.1224C15.4385 28 16.5054 26.9331 16.5054 25.617V16.6809H25.617C26.9331 16.6809 28 15.614 28 14.2979V13.7021C28 12.386 26.9331 11.3191 25.617 11.3191H16.5054V2.38298ZM16.5054 11.3191L16.5054 16.6809H11.1437L11.1437 11.3191H16.5054Z" fill="white"/>
<path d="M16.5054 16.6809L16.5054 11.3191H11.1437L11.1437 16.6809H16.5054Z" fill="white"/>
</g>
<defs>
<clipPath id="bgblur_0_81_257_clip_path" transform="translate(40 40)"><path fill-rule="evenodd" clip-rule="evenodd" d="M16.5054 2.38298C16.5054 1.0669 15.4385 8.35687e-08 14.1224 2.60409e-08L13.5267 0C12.2106 -5.75278e-08 11.1437 1.0669 11.1437 2.38298V11.3191H2.38298C1.0669 11.3191 0 12.386 0 13.7021V14.2979C0 15.614 1.0669 16.6809 2.38298 16.6809H11.1437V25.617C11.1437 26.9331 12.2106 28 13.5267 28H14.1224C15.4385 28 16.5054 26.9331 16.5054 25.617V16.6809H25.617C26.9331 16.6809 28 15.614 28 14.2979V13.7021C28 12.386 26.9331 11.3191 25.617 11.3191H16.5054V2.38298ZM16.5054 11.3191L16.5054 16.6809H11.1437L11.1437 11.3191H16.5054Z"/>
<path d="M16.5054 16.6809L16.5054 11.3191H11.1437L11.1437 16.6809H16.5054Z"/>
</clipPath></defs>
</svg>
